#!OML:ASF E:\motion texture\Top Level 1\Subject 1\Session 1\male.ASF
:FULLY-SPECIFIED
:DEGREES
638
root -48.9462 17.951 4.58707 351.764 -94.8494 -349.66
lowerback -0.746031 -1.22487 -2.44778
upperback -0.116056 -1.61747 0.863707
thorax 0.391896 -0.813543 2.23838
lowerneck -2.2275 -14.6626 -17.9656
upperneck 14.8696 -21.234 12.5995
head 8.24294 -10.5738 4.73441
rclavicle -4.46008e-014 -3.67752e-015
rhumerus -20.5577 7.17163 -92.7434
rradius 29.611
rwrist 17.2183
rhand -13.7711 -22.4609
rfingers 7.12502
rthumb 12.3498 -52.0761
lclavicle -4.46008e-014 -3.67752e-015
lhumerus -22.7148 35.3582 74.8122
lradius 15.6392
lwrist -51.9549
lhand -12.9985 19.5701
lfingers 7.12502
lthumb 13.0947 49.139
rfemur -28.3542 -4.76265 19.4625
rtibia 44.3364
rfoot -6.4082 -15.4929
rtoes 7.71927
lfemur -7.34264 -2.89098 -19.4661
ltibia 17.0391
lfoot -8.3235 1.80643
ltoes -1.06896
639
root -49.0545 17.9466 4.57277 351.966 -94.842 -349.823
lowerback -0.961338 -1.41116 -2.6428
upperback -0.00675574 -1.85864 0.959125
thorax 0.64778 -0.93973 2.43472
lowerneck -1.34455 -15.169 -18.5064
upperneck 14.1369 -22.0634 13.0922
head 8.10461 -11.0035 4.89748
rclavicle 6.75091e-015 -1.36664e-015
rhumerus -19.7738 3.75209 -91.8263
rradius 26.4642
rwrist 19.2072
rhand -13.647 -22.4571
rfingers 7.12502
rthumb 12.4695 -52.0651
lclavicle 6.75091e-015 -1.36664e-015
lhumerus -22.5647 34.6348 75.0823
lradius 15.8664
lwrist -51.9622
lhand -15.1966 16.2667
lfingers 7.12502
lthumb 10.9751 45.9598
rfemur -28.3123 -4.32055 19.353
rtibia 41.6619
rfoot -6.25401 -13.1138
rtoes 14.1681
lfemur -6.96933 -2.89095 -19.4919
ltibia 17.0395
lfoot -8.66323 1.81637
ltoes -1.24451
640
root -49.1646 17.942 4.56268 352.427 -94.744 -350.283
lowerback -0.743883 -1.60928 -2.91434
upperback -0.12977 -2.12834 1.1295
thorax 0.432929 -1.07099 2.76575
lowerneck -0.371843 -15.6033 -19.1069
upperneck 13.4026 -22.8063 13.5454
head 7.94792 -11.4047 5.07655
rclavicle -2.81692e-014 4.17448e-015
rhumerus -19.3861 -0.0704115 -90.6074
rradius 23.4762
rwrist 21.3957
rhand -13.5779 -22.6545
rfingers 7.12502
rthumb 12.536 -52.2584
lclavicle -2.81692e-014 4.17448e-015
lhumerus -21.9059 29.9199 77.1245
lradius 17.8365
lwrist -42.5357
lhand -12.4975 20.2933
lfingers 7.12502
lthumb 13.5775 49.8305
rfemur -28.1202 -4.053 19.1629
rtibia 38.8314
rfoot -5.22747 -10.1564
rtoes 20.6539
lfemur -6.51744 -2.96873 -19.6166
ltibia 16.9584
lfoot -8.973 1.82932
ltoes -1.2166
641
root -49.277 17.9341 4.5497 355.219 -94.6363 -353.133
lowerback -0.823163 -1.81115 -3.31781
upperback -0.0272453 -2.39091 1.17034
thorax 0.619204 -1.20803 3.02481
lowerneck 0.38905 -16.0634 -19.4563
upperneck 12.7016 -23.5397 13.886
head 7.80026 -11.7857 5.17169
rclavicle -3.50148e-014 1.33683e-014
rhumerus -18.8876 -5.61548 -89.1099
rradius 20.7408
rwrist 25.1306
rhand -13.573 -22.7605
rfingers 7.12502
rthumb 12.5408 -52.3641
lclavicle -3.50148e-014 1.33683e-014
lhumerus -21.9059 29.9199 77.1245
lradius 17.8365
lwrist -42.5357
lhand -12.4975 20.2933
lfingers 7.12502
lthumb 13.5775 49.8305
rfemur -28.1202 -4.053 19.1629
rtibia 38.8314
rfoot -5.22747 -10.1564
rtoes 20.6539
lfemur -6.03578 -2.98115 -19.9593
ltibia 16.9801
lfoot -9.47197 1.81137
ltoes -1.79432
642
root -49.3773 17.9246 4.53009 353.026 -94.6992 -350.816
lowerback -0.888446 -1.93661 -3.22933
upperback -0.0555752 -2.55851 1.2723
thorax 0.640468 -1.29208 3.0749
lowerneck 1.34365 -16.4562 -19.7607
upperneck 11.8644 -24.2277 14.369
head 7.58741 -12.1519 5.33492
rclavicle -2.55469e-016 -2.13694e-015
rhumerus -18.7597 -11.8102 -87.391
rradius 18.2418
rwrist 29.1635
rhand -13.7067 -23.0147
rfingers 7.12502
rthumb 12.4119 -52.6262
lclavicle -2.55469e-016 -2.13694e-015
lhumerus -21.9059 29.9199 77.1245
lradius 17.8365
lwrist -42.5357
lhand -12.4975 20.2933
lfingers 7.12502
lthumb 13.5775 49.8305
rfemur -28.1202 -4.053 19.1629
rtibia 38.8314
rfoot -5.22747 -10.1564
rtoes 20.6539
lfemur -5.87422 -2.86473 -19.6181
ltibia 17.1172
lfoot -9.83377 1.81904
ltoes -1.97227
643
root -49.5005 17.9146 4.51702 353.217 -94.6038 -351.022
lowerback -1.08463 -2.11978 -3.34244
upperback 0.0350681 -2.79581 1.35981
thorax 0.871766 -1.41728 3.21315
lowerneck 2.02845 -16.8759 -19.937
upperneck 11.2098 -24.874 14.5615
head 7.42227 -12.491 5.3731
rclavicle 4.73977e-015 -2.6339e-015
rhumerus -18.8196 -18.6589 -85.2062
rradius 15.8607
rwrist 33.9541
rhand -14.0786 -23.5088
rfingers 7.12502
rthumb 12.0533 -53.1416
lclavicle 4.73977e-015 -2.6339e-015
lhumerus -21.9059 29.9199 77.1245
lradius 17.8365
lwrist -42.5357
lhand -12.4975 20.2933
lfingers 7.12502
lthumb 13.5775 49.8305
rfemur -28.1202 -4.053 19.1629
rtibia 38.8314
rfoot -5.22747 -10.1564
rtoes 20.6539
lfemur -5.35217 -2.82997 -19.7033
ltibia 17.0541
lfoot -10.2106 1.73542
ltoes -2.25824
644
root -49.6153 17.9039 4.50481 354.745 -94.4843 -352.547
lowerback -1.09322 -2.29674 -3.61114
upperback 0.0452887 -3.02935 1.4667
thorax 0.925906 -1.53719 3.46705
lowerneck 2.77028 -17.2441 -20.1502
upperneck 10.3724 -25.4514 14.8861
head 7.2034 -12.7983 5.47934
rclavicle 1.87789e-014 -2.38542e-015
rhumerus -19.5048 -26.9335 -82.2513
rradius 13.7653
rwrist 40.0628
rhand -13.8153 -24.2369
rfingers 7.12502
rthumb 12.3072 -53.8547
lclavicle 1.87789e-014 -2.38542e-015
lhumerus -21.9059 29.9199 77.1245
lradius 17.8365
lwrist -42.5357
lhand -12.4975 20.2933
lfingers 7.12502
lthumb 13.5775 49.8305
rfemur -28.1202 -4.053 19.1629
rtibia 38.8314
rfoot -5.22747 -10.1564
rtoes 20.6539
lfemur -4.97236 -2.81708 -19.9101
ltibia 17.1429
lfoot -10.626 1.65821
ltoes -2.20398
645
root -49.7218 17.8896 4.48753 354.373 -94.5068 -352.098
lowerback -1.08193 -2.40427 -3.67796
upperback -0.0174396 -3.17452 1.58153
thorax 0.878027 -1.60886 3.621
lowerneck 3.56478 -17.5605 -20.3115
upperneck 9.56053 -25.9755 15.2243
head 6.97459 -13.0844 5.60024
rclavicle -2.43822e-015 -4.96962e-016
rhumerus -21.2249 -35.7349 -78.4419
rradius 12.2009
rwrist 47.0322
rhand -14.5303 -24.5
rfingers 7.12502
rthumb 11.6177 -54.1579
lclavicle -2.43822e-015 -4.96962e-016
lhumerus -21.9059 29.9199 77.1245
lradius 17.8365
lwrist -42.5357
lhand -12.4975 20.2933
lfingers 7.12502
lthumb 13.5775 49.8305
rfemur -28.1202 -4.053 19.1629
rtibia 38.8314
rfoot -5.22747 -10.1564
rtoes 20.6539
lfemur -4.73208 -2.76299 -19.8107
ltibia 17.2789
lfoot -11.018 1.68406
ltoes -2.43352
646
root -49.8315 17.8761 4.47096 353.213 -94.4858 -350.837
lowerback -1.21562 -2.51814 -3.63904
upperback -0.00896709 -3.32442 1.69749
thorax 0.979969 -1.6868 3.70788
lowerneck 4.03254 -17.9377 -20.2616
upperneck 9.0459 -26.5078 15.2387
head 6.82351 -13.3599 5.56185
rclavicle -2.38293e-014 -9.34288e-015
rhumerus -24.0284 -44.37 -73.6623
rradius 11.1432
rwrist 54.1302
rhand -14.597 -25.5962
rfingers 7.12502
rthumb 11.5534 -55.2577
lclavicle -2.38293e-014 -9.34288e-015
lhumerus -21.9059 29.9199 77.1245
lradius 17.8365
lwrist -42.5357
lhand -12.4975 20.2933
lfingers 7.12502
lthumb 13.5775 49.8305
rfemur -28.1202 -4.053 19.1629
rtibia 38.8314
rfoot -5.22747 -10.1564
rtoes 20.6539
lfemur -4.52605 -2.72208 -19.6627
ltibia 17.4651
lfoot -11.4353 1.65444
ltoes -2.58201
647
root -49.9459 17.8596 4.45285 354.27 -94.4901 -351.836
lowerback -1.4059 -2.59848 -3.76017
upperback 0.036018 -3.4241 1.75629
thorax 1.15286 -1.74215 3.82279
lowerneck 4.57131 -18.2587 -20.283
upperneck 8.37721 -26.987 15.4772
head 6.64629 -13.6117 5.61996
rclavicle -3.25758e-014 6.75868e-015
rhumerus -28.1016 -51.8922 -67.8583
rradius 10.499
rwrist 60.3757
rhand -14.7261 -26.5084
rfingers 7.12502
rthumb 11.4289 -56.1769
lclavicle -3.25758e-014 6.75868e-015
lhumerus -21.9059 29.9199 77.1245
lradius 17.8365
lwrist -42.5357
lhand -12.4975 20.2933
lfingers 7.12502
lthumb 13.5775 49.8305
rfemur -28.1202 -4.053 19.1629
rtibia 38.8314
rfoot -5.22747 -10.1564
rtoes 20.6539
lfemur -4.25273 -2.71174 -19.7296
ltibia 17.6311
lfoot -11.8731 1.73756
ltoes -2.93984
648
root -50.0674 17.8427 4.44171 356.307 -94.4356 -353.877
lowerback -1.45828 -2.7028 -3.85552
upperback -0.00148058 -3.56052 1.77826
thorax 1.16387 -1.8107 3.89259
lowerneck 5.06227 -18.5201 -20.3148
upperneck 7.88017 -27.3908 15.626
head 6.50767 -13.829 5.65825
rclavicle -1.65861e-015 1.09332e-014
rhumerus -33.2055 -57.16 -61.435
rradius 10.2125
rwrist 65.0189
rhand -14.9899 -27.2899
rfingers 7.12502
rthumb 11.1745 -56.9723
lclavicle -1.65861e-015 1.09332e-014
lhumerus -21.9059 29.9199 77.1245
lradius 17.8365
lwrist -42.5357
lhand -12.4975 20.2933
lfingers 7.12502
lthumb 13.5775 49.8305
rfemur -28.1202 -4.053 19.1629
rtibia 38.8314
rfoot -5.22747 -10.1564
rtoes 20.6539
lfemur -3.83477 -2.79737 -20.0153
ltibia 17.7399
lfoot -12.3206 1.78552
ltoes -3.26889
649
root -50.1759 17.8239 4.42334 356.742 -94.4663 -354.272
lowerback -1.50667 -2.75454 -3.88092
upperback -0.00442374 -3.62861 1.83755
thorax 1.20005 -1.84616 3.96317
lowerneck 5.53284 -18.7657 -20.2958
upperneck 7.30715 -27.7664 15.8677
head 6.35206 -14.0298 5.72488
rclavicle -1.7462e-014 1.09332e-014
rhumerus -37.2715 -59.7492 -56.4898
rradius 10.1733
rwrist 67.0917
rhand -15.0293 -28.3693
rfingers 7.12502
rthumb 11.1365 -58.0538
lclavicle -1.7462e-014 1.09332e-014
lhumerus -21.9059 29.9199 77.1245
lradius 17.8365
lwrist -42.5357
lhand -12.4975 20.2933
lfingers 7.12502
lthumb 13.5775 49.8305
rfemur -28.1202 -4.053 19.1629
rtibia 38.8314
rfoot -5.22747 -10.1564
rtoes 20.6539
lfemur -3.61946 -2.83662 -20.0249
ltibia 18.0205
lfoot -12.7591 1.89515
ltoes -3.67735
